<svg xmlns="http://www.w3.org/2000/svg" width="247" height="57" viewBox="0 0 247 57">
  <g fill="#221F20" fill-rule="evenodd">
    <path d="M47.986.6294L27.798.6294 27.798 31.0194C27.798 34.0784 26.538 35.6074 24.02 35.6074 21.464 35.6074 20.187 34.0784 20.187 31.0194L20.187.6294 0 .6294 0 29.0224C0 36.7594 1.816 42.8054 5.451 47.1584 10.129 52.7364 16.301 55.5254 23.966 55.5254 30.636 55.5254 36.281 53.1614 40.901 48.4404L47.986 55.5254 47.986.6294zM229.1276 22.875C226.1376 22.875 223.0656 22.144 220.9106 20.919L220.7336 20.819 221.7966 16.11 222.1166 16.288C224.4186 17.561 226.9716 18.262 229.3066 18.262 231.3316 18.262 232.6926 17.404 232.6926 16.126 232.6926 14.814 231.1936 14.359 228.0746 13.534 224.8196 12.672 221.0836 11.127 221.0836 6.794 221.0836 2.604 224.2856 0 229.4406 0 232.4326 0 235.1056.643 237.3876 1.911L237.5706 2.013 236.4086 6.711 236.0976 6.545C234.0496 5.453 231.5066 4.747 229.6186 4.747 227.7496 4.747 226.6336 5.429 226.6336 6.571 226.6336 7.948 228.5926 8.454 231.0736 9.096L231.1606 9.118C234.0846 9.849 237.9746 11.33 237.9746 15.724 237.9746 20.068 234.5026 22.875 229.1276 22.875M69.9131 22.875C66.9231 22.875 63.8511 22.144 61.6961 20.919L61.5191 20.819 62.5821 16.11 62.9021 16.288C65.2041 17.561 67.7571 18.262 70.0921 18.262 72.1171 18.262 73.4781 17.404 73.4781 16.126 73.4781 14.814 71.9791 14.359 68.8601 13.534 65.6051 12.672 61.8691 11.127 61.8691 6.794 61.8691 2.604 65.0711 0 70.2261 0 73.2181 0 75.8911.643 78.1731 1.911L78.3561 2.013 77.1941 6.711 76.8831 6.545C74.8351 5.453 72.2921 4.747 70.4041 4.747 68.5351 4.747 67.4191 5.429 67.4191 6.571 67.4191 7.948 69.3781 8.454 71.8591 9.096L71.9461 9.118C74.8701 9.849 78.7601 11.33 78.7601 15.724 78.7601 20.068 75.2881 22.875 69.9131 22.875M81.4657 46.6947L81.4657 33.7937 76.1587 33.7937 76.1587 46.6487C76.1587 50.1257 74.7407 51.5447 71.9957 51.5447 69.0677 51.5447 67.6497 49.8057 67.6497 46.5117L67.6497 33.7937 62.3427 33.7937 62.3427 47.1527C62.3427 53.2367 66.2767 56.0737 71.9037 56.0737 77.7597 56.0737 81.4657 52.9167 81.4657 46.6947"/>
    <polygon points="101.962 48.113 92.492 33.793 86.819 33.793 86.819 55.524 91.714 55.524 91.668 41.205 101.23 55.753 106.857 55.753 106.857 33.793 101.916 33.793"/>
    <polygon points="112.621 55.524 117.882 55.524 117.882 33.793 112.621 33.793"/>
    <path d="M145.3778,44.5445 C145.3778,37.2705 140.3908,33.1985 133.9858,33.1985 C127.4898,33.1985 122.5488,37.8195 122.5488,44.6815 C122.5488,52.0015 127.4898,56.0735 133.9408,56.0735 C140.3908,56.0735 145.3778,51.4525 145.3778,44.5445 M140.0708,44.6815 C140.0708,48.9365 137.8288,51.9105 133.9858,51.9105 C130.1428,51.9105 127.8098,48.9365 127.8098,44.5445 C127.8098,40.3355 130.0978,37.4075 133.8948,37.4075 C137.7378,37.4075 140.0708,40.3355 140.0708,44.6815"/>
    <polygon points="165.141 48.113 155.671 33.793 149.998 33.793 149.998 55.524 154.893 55.524 154.847 41.205 164.409 55.753 170.036 55.753 170.036 33.793 165.095 33.793"/>
    <path d="M204.2371 47.198L204.2371 33.93 201.4921 33.93 201.4921 47.198C201.4921 51.315 199.5701 53.466 195.9561 53.466 192.1131 53.466 190.2371 51.133 190.2371 47.198L190.2371 33.93 187.4921 33.93 187.4921 47.518C187.4921 52.825 190.5581 55.982 195.8651 55.982 201.3551 55.982 204.2371 52.688 204.2371 47.198M226.8004 35.2115C225.1074 34.2045 222.6374 33.4735 220.0294 33.4735 213.8074 33.4735 209.4614 37.9105 209.4614 44.7735 209.4614 51.6815 213.6244 55.9825 219.9834 55.9825 222.4994 55.9825 224.9704 55.2955 226.6174 54.2895L226.0684 51.5905C224.6044 52.7335 222.4084 53.5115 220.0754 53.5115 215.3174 53.5115 212.2514 50.1255 212.2514 44.6815 212.2514 39.1465 215.4544 35.9435 220.0294 35.9435 222.2254 35.9435 224.1924 36.5835 225.9314 37.6365L226.8004 35.2115z"/>
    <polygon points="246.646 55.524 246.646 53.008 236.261 53.008 236.261 33.93 233.47 33.93 233.47 55.524"/>
    <polygon points="100.91 5.032 100.91 .595 81.238 .595 81.238 5.032 88.42 5.032 88.42 22.326 93.727 22.326 93.727 5.032"/>
    <path d="M124.5165 13.4962L124.5165.5942 119.2095.5942 119.2095 13.4502C119.2095 16.9272 117.7915 18.3452 115.0465 18.3452 112.1185 18.3452 110.7005 16.6072 110.7005 13.3132L110.7005.5942 105.3935.5942 105.3935 13.9532C105.3935 20.0382 109.3275 22.8752 114.9545 22.8752 120.8105 22.8752 124.5165 19.7182 124.5165 13.4962M149.9077 11.3003C149.9077 4.8033 145.5617.5943 137.9667.5943L129.8697.5943 129.8697 22.3263 137.6467 22.3263C145.5617 22.3263 149.9077 17.9803 149.9077 11.3003M144.5547 11.4833C144.5547 15.8753 141.7647 18.0713 137.8297 18.0713L135.1767 18.0713 135.1767 4.8493 137.6927 4.8493C141.8097 4.8493 144.5547 6.9543 144.5547 11.4833"/>
    <polygon points="169.488 22.326 169.488 18.163 158.875 18.163 158.875 13.405 167.704 13.405 167.704 9.424 158.875 9.424 158.875 4.712 169.488 4.712 169.488 .595 153.843 .595 153.843 22.326"/>
    <polygon points="189.664 14.915 180.194 .595 174.521 .595 174.521 22.326 179.416 22.326 179.37 8.007 188.932 22.555 194.559 22.555 194.559 .595 189.618 .595"/>
    <polygon points="218.166 5.032 218.166 .595 198.494 .595 198.494 5.032 205.675 5.032 205.675 22.326 210.982 22.326 210.982 5.032"/>
    <polygon points="246.646 5.199 246.646 .629 241.635 .629 241.635 8.993"/>
  </g>
</svg>
