<svg xmlns="http://www.w3.org/2000/svg" width="79" height="91" viewBox="0 0 79 91">
  <g fill="none" fill-rule="evenodd">
    <path fill="#010202" d="M79,90.375 L79,49.409 L79,34.93 L79,0 L0,0 L0,46.743 C0,59.481 2.991,69.434 8.975,76.601 C16.676,85.785 26.837,90.375 39.456,90.375 C49.654,90.375 58.379,86.98 65.666,80.277 L79,90.375 Z"/>
    <g fill="#FEFEFE" transform="translate(9 22)">
      <path d="M.1853 11.2665L.8803 9.8305C1.1733 10.0315 1.8993 10.4485 2.7333 10.4485 3.5203 10.4485 3.9683 10.2165 3.9683 9.7685 3.9683 9.2595 3.1353 9.1205 2.0693 8.6105 1.0193 8.1165.3863 7.5295.3863 6.3865.3863 4.9815 1.4973 4.0855 3.1963 4.0855 4.4783 4.0855 5.2663 4.4875 5.6053 4.6875L4.8793 6.0935C4.5863 5.9085 3.9993 5.6145 3.2733 5.6145 2.5483 5.6145 2.2393 5.8775 2.2393 6.2785 2.2393 6.7885 2.9183 6.9275 3.7833 7.2665 4.9723 7.7615 5.8373 8.3015 5.8373 9.5675 5.8373 11.1425 4.7093 11.9765 2.8563 11.9765 1.5133 11.9765.6483 11.5755.1853 11.2665M7.7679 9.6293L7.7679 5.8003 6.5629 5.8003 6.5629 4.2713 7.7679 4.2713 7.7679 2.0943 9.8059 2.0943 9.8059 4.2713 11.5659 4.2713 11.5659 5.8003 9.8059 5.8003 9.8059 9.2283C9.8059 9.9693 9.9919 10.2933 10.5629 10.2933 11.0109 10.2933 11.3969 10.1083 11.5509 10.0153L12.0299 11.5443C11.7209 11.7143 11.0879 11.9773 10.1459 11.9773 8.3699 11.9773 7.7679 11.0663 7.7679 9.6293M13.1726 9.537L13.1726 4.271 15.2266 4.271 15.2266 9.12C15.2266 9.876 15.4886 10.263 16.2306 10.263 17.0176 10.263 17.6196 9.506 17.7746 9.321L17.7746 4.271 19.8286 4.271 19.8286 9.629C19.8286 10.587 19.9366 11.344 20.0286 11.791L18.0056 11.791C17.9436 11.591 17.8666 11.097 17.8516 10.787 17.4496 11.297 16.6776 11.977 15.4266 11.977 13.7746 11.977 13.1726 10.911 13.1726 9.537M26.4226 9.5834L26.4226 6.1864C26.0986 5.8924 25.6966 5.6914 25.1106 5.6914 24.0606 5.6914 23.4886 6.5724 23.4886 8.0544 23.4886 9.4904 23.9676 10.3394 25.0176 10.3394 25.6196 10.3394 26.1296 9.9694 26.4226 9.5834M21.3116 8.0544C21.3116 5.6454 22.7476 4.0854 24.6776 4.0854 25.4806 4.0854 26.0676 4.3174 26.4226 4.6104L26.4226.6734 28.4766.6734 28.4766 9.6454C28.4766 10.5564 28.5846 11.2974 28.6926 11.7914L26.6696 11.7914C26.6086 11.6054 26.5306 11.2044 26.5156 10.9734 26.0056 11.5904 25.3416 11.9924 24.3996 11.9924 22.5156 11.9924 21.3116 10.5714 21.3116 8.0544M34.8855 7.1127C34.8695 6.2627 34.5305 5.5687 33.5885 5.5687 32.7085 5.5687 32.2295 6.1397 32.0745 7.1127L34.8855 7.1127zM29.8975 7.9927C29.8975 5.6147 31.5345 4.0857 33.6185 4.0857 35.7505 4.0857 36.8925 5.4447 36.8925 7.7917 36.8925 8.0237 36.8775 8.2557 36.8625 8.5027L32.1055 8.5027C32.1985 9.6137 32.7695 10.4477 34.0205 10.4477 35.0395 10.4477 35.6115 10.1087 35.9815 9.9227L36.6455 11.2507C36.1515 11.5287 35.3795 11.9767 33.8355 11.9767 31.3185 11.9767 29.8975 10.3857 29.8975 7.9927L29.8975 7.9927zM38.4529 4.2714L40.4599 4.2714 40.4599 5.2134C41.0009 4.5804 41.7729 4.0854 42.8539 4.0854 44.4909 4.0854 45.1079 5.1364 45.1079 6.5254L45.1079 11.7914 43.0549 11.7914 43.0549 6.9424C43.0549 6.1864 42.7919 5.8004 42.0509 5.8004 41.3869 5.8004 40.8149 6.3254 40.5069 6.7424L40.5069 11.7914 38.4529 11.7914 38.4529 4.2714zM47.5491 9.6293L47.5491 5.8003 46.3441 5.8003 46.3441 4.2713 47.5491 4.2713 47.5491 2.0943 49.5871 2.0943 49.5871 4.2713 51.3471 4.2713 51.3471 5.8003 49.5871 5.8003 49.5871 9.2283C49.5871 9.9693 49.7731 10.2933 50.3441 10.2933 50.7921 10.2933 51.1781 10.1083 51.3321 10.0153L51.8111 11.5443C51.5021 11.7143 50.8691 11.9773 49.9271 11.9773 48.1511 11.9773 47.5491 11.0663 47.5491 9.6293M52.4285 11.2665L53.1235 9.8305C53.4165 10.0315 54.1425 10.4485 54.9765 10.4485 55.7635 10.4485 56.2115 10.2165 56.2115 9.7685 56.2115 9.2595 55.3785 9.1205 54.3125 8.6105 53.2625 8.1165 52.6295 7.5295 52.6295 6.3865 52.6295 4.9815 53.7405 4.0855 55.4395 4.0855 56.7215 4.0855 57.5095 4.4875 57.8485 4.6875L57.1225 6.0935C56.8295 5.9085 56.2425 5.6145 55.5165 5.6145 54.7915 5.6145 54.4825 5.8775 54.4825 6.2785 54.4825 6.7885 55.1615 6.9275 56.0265 7.2665 57.2155 7.7615 58.0805 8.3015 58.0805 9.5675 58.0805 11.1425 56.9525 11.9765 55.0995 11.9765 53.7565 11.9765 52.8915 11.5755 52.4285 11.2665"/>
      <polygon points="61.216 5.499 61.216 3.584 59.116 3.584 59.116 7.09"/>
      <path d="M12.1306 21.6743L12.1306 16.4083 14.1846 16.4083 14.1846 21.2573C14.1846 22.0143 14.4466 22.4003 15.1886 22.4003 15.9756 22.4003 16.5776 21.6433 16.7326 21.4583L16.7326 16.4083 18.7866 16.4083 18.7866 21.7673C18.7866 22.7243 18.8946 23.4813 18.9866 23.9283L16.9636 23.9283C16.9016 23.7283 16.8246 23.2343 16.8096 22.9243 16.4076 23.4343 15.6356 24.1133 14.3846 24.1133 12.7326 24.1133 12.1306 23.0483 12.1306 21.6743M20.7942 16.4086L22.8012 16.4086 22.8012 17.3506C23.3422 16.7176 24.1142 16.2226 25.1952 16.2226 26.8322 16.2226 27.4492 17.2736 27.4492 18.6626L27.4492 23.9286 25.3962 23.9286 25.3962 19.0796C25.3962 18.3236 25.1332 17.9366 24.3922 17.9366 23.7282 17.9366 23.1562 18.4626 22.8482 18.8796L22.8482 23.9286 20.7942 23.9286 20.7942 16.4086z"/>
      <polygon points="29.519 23.929 31.588 23.929 31.588 16.409 29.519 16.409"/>
      <path d="M38.5686 20.1918C38.5686 18.7868 38.0746 17.7518 36.9006 17.7518 35.7426 17.7518 35.3566 18.7248 35.3566 20.1298 35.3566 21.5348 35.8196 22.5538 36.9776 22.5538 38.1516 22.5538 38.5686 21.5968 38.5686 20.1918M33.1796 20.1918C33.1796 18.2618 34.3066 16.2228 36.9316 16.2228 39.5566 16.2228 40.7456 18.1998 40.7456 20.1298 40.7456 22.0288 39.5876 24.1138 36.9466 24.1138 34.3216 24.1138 33.1796 22.1218 33.1796 20.1918M42.2137 16.4086L44.2207 16.4086 44.2207 17.3506C44.7617 16.7176 45.5337 16.2226 46.6147 16.2226 48.2517 16.2226 48.8687 17.2736 48.8687 18.6626L48.8687 23.9286 46.8157 23.9286 46.8157 19.0796C46.8157 18.3236 46.5527 17.9366 45.8117 17.9366 45.1477 17.9366 44.5757 18.4626 44.2677 18.8796L44.2677 23.9286 42.2137 23.9286 42.2137 16.4086zM17.9514 32.8237L18.0124 32.4047C17.9164 32.3697 17.6724 32.3257 17.4284 32.3257 16.3364 32.3257 15.7084 33.5477 15.7084 34.7957 15.7084 35.3637 15.8914 35.6077 16.2404 35.6077 17.0094 35.6077 17.7764 34.0457 17.9514 32.8237M15.0714 34.8917C15.0714 33.3467 15.9524 31.7757 17.5504 31.7757 18.1524 31.7757 18.5624 31.8897 18.7374 31.9417L18.3184 34.2457C18.1084 35.4157 18.0554 36.0707 18.0554 36.0707L17.4454 36.0707C17.5064 35.6077 17.5674 35.2407 17.6804 34.7787L17.6634 34.7787C17.3054 35.4857 16.8774 36.1757 16.1004 36.1757 15.4024 36.1757 15.0714 35.6427 15.0714 34.8917M19.5662 35.4067C19.5662 35.2937 19.5752 35.1627 19.6012 35.0227L20.0892 32.3867 19.3572 32.3867 19.4442 31.8807 20.1862 31.8807 20.4042 30.7027 21.0672 30.5457 20.8232 31.8807 21.8532 31.8807 21.7652 32.3867 20.7272 32.3867 20.2642 34.8837C20.2292 35.0667 20.2032 35.2237 20.2032 35.3457 20.2032 35.5297 20.2642 35.6247 20.4562 35.6247 20.7792 35.6247 21.0502 35.3717 21.2422 35.2147L21.5652 35.6517C21.2682 35.9217 20.8932 36.1757 20.3692 36.1757 19.8022 36.1757 19.5662 35.8957 19.5662 35.4067M41.1144 28.1599L42.2884 28.1599 42.2884 35.1089 45.6694 35.1089 45.6694 36.0659 41.1144 36.0659 41.1144 28.1599zM32.7594 32.0979C32.7594 29.8889 34.2574 28.0059 36.8824 28.0059 37.9484 28.0059 38.6274 28.2369 39.2454 28.6229L38.6744 29.4879C38.2104 29.1789 37.6234 28.9779 36.8514 28.9779 34.9524 28.9779 33.9794 30.2909 33.9794 32.0509 33.9794 33.8579 34.9214 35.2319 36.8824 35.2319 37.7784 35.2319 38.4114 34.9389 38.8744 34.5839L39.3844 35.4019C38.9514 35.7729 38.0254 36.2049 36.8514 36.2049 34.2114 36.2049 32.7594 34.2899 32.7594 32.0979L32.7594 32.0979zM24.7444 32.9009L24.7444 28.1599 25.9184 28.1599 25.9184 32.7619C25.9184 34.5219 26.5824 35.2319 28.0804 35.2319 29.5164 35.2319 30.1644 34.3829 30.1644 32.9159L30.1644 28.1599 31.2454 28.1599 31.2454 32.8079C31.2454 34.8619 30.2264 36.2049 28.0334 36.2049 25.7484 36.2049 24.7444 34.8619 24.7444 32.9009L24.7444 32.9009z"/>
    </g>
  </g>
</svg>
